<?xml version="1.0"?>
<svg xmlns:rdf="http://www.w3.org/1999/02/22-rdf-syntax-ns#" xmlns="http://www.w3.org/2000/svg" xmlns:cc="http://creativecommons.org/ns#" xmlns:dc="http://purl.org/dc/elements/1.1/" xmlns:svg="http://www.w3.org/2000/svg" id="svg2993" viewBox="0 0 1080 1080" version="1.1">
  <g id="layer1" transform="translate(0 27.64)">
    <path id="path8952" d="m568.05 809.53c-4.2898-1.9366-5.2109-4.0648-4.9049-11.333 0.23877-5.6707 1.4174-8.671 4.0992-10.434 1.5193-0.99901 0.97578-11.414-0.73307-14.046-2.7155-4.1827-5.7164-13.607-6.3728-20.014-0.76566-7.4733 0.66656-15.223 4.1152-22.268 2.3982-4.8986 2.4106-5.0507 0.61264-7.5-1.0093-1.375-2.5726-3.9261-3.4739-5.6691-3.3813-6.5388-8.6711-46.841-8.6711-66.064 0-4.7529-0.61641-7.5498-2.4702-11.208-4.2685-8.4234-9.091-30.202-10.863-49.059l-1.2687-13.5-0.75714 15.42c-0.41644 8.4809-1.1514 17.499-1.6332 20.039-0.48183 2.5407-0.8931 10.677-0.91393 18.08-0.0231 8.1997-0.69406 16.978-1.7167 22.461-0.92335 4.95-1.6499 10.012-1.6145 11.25 0.48867 17.093 0.15884 25.791-1.232 32.489-1.5468 7.4489-1.5341 7.8423 0.33742 10.5 4.0335 5.7278 5.3428 12.472 4.7616 24.527-0.2979 6.1787-0.82726 13.315-1.1764 15.858-0.44964 3.2758-0.17878 5.506 0.92886 7.6479 2.1323 4.1234 3.6595 11.353 2.9618 14.02-0.87188 3.3341-11.243 7.9102-20.821 9.1872-5.7255 0.76328-9.0276 1.7913-11.698 3.6419-5.4567 3.7815-10.501 5.2852-17.897 5.3346-12.219 0.0816-20.8-4.708-19.45-10.856 1.3195-6.0078 13.27-13.832 26.022-17.036l4-1.0052-0.1391-8.4284c-0.0765-4.6356-0.7346-10.161-1.4624-12.279-0.75405-2.1944-1.3628-8.583-1.4151-14.851-0.0805-9.644-0.41275-11.687-2.6954-16.57-4.1459-8.8695-5.7674-15.59-6.8598-28.43-0.56153-6.6-1.6784-19.65-2.4818-29-0.80346-9.35-1.7538-28.588-2.1118-42.75-0.61788-24.439-0.7481-25.75-2.5585-25.75-1.0491 0-2.8904-0.54086-4.0917-1.2019-2.2122-1.2173-3.883-1.7337-6.786-2.0974-2.5376-0.31793-6.7343-4.7809-9.4117-10.009-3.5032-6.8405-3.6914-15.739-0.55799-26.385 2.2434-7.6221 2.3319-8.7718 1.2689-16.5-3.8194-27.769-3.906-53.005-0.25914-75.51 1.0514-6.4882 2.1819-17.985 2.5122-25.549 0.33031-7.5639 0.84182-14.989 1.1367-16.5 0.47392-2.4286 0.0357-3.0133-3.7755-5.0378-2.3714-1.2597-5.6156-3.4328-7.2092-4.829l-2.8976-2.5386 1.7545-3.671c0.96496-2.0191 3.7618-9.0711 6.2151-15.671 6.0814-16.36 13.724-30.57 19.825-36.863 4.9438-5.0984 15.056-10.824 24-13.588 2.2-0.6801 7.4763-2.835 11.725-4.7888 6.2843-2.8897 8.0836-4.2399 9.6469-7.2391 1.7377-3.3339 1.7956-4.1577 0.60417-8.604-2.289-8.5424-3.5869-11.317-5.591-11.954-3.6878-1.1705-7.0366-5.7113-6.4541-8.7516 0.36667-1.914 0.0693-2.9664-0.9485-3.357-0.81543-0.3129-1.4826-1.18-1.4826-1.9268s-0.86771-1.8222-1.9282-2.3898c-1.0605-0.5675-2.9531-3.1709-4.2057-5.7851-1.2526-2.6143-3.1716-5.7745-4.2644-7.0228-2.499-2.8544-3.2284-11.053-1.0574-11.886 0.80066-0.3073 1.4558-1.1304 1.4558-1.8292 0-2.014 2.4978-3.5604 6.1337-3.7971 1.8438-0.1201 4.1534-1.0162 5.1323-1.9913 1.4031-1.3976 2.2064-1.5446 3.7947-0.6946 1.1082 0.5931 2.8614 0.8096 3.8961 0.4812 1.6106-0.5111 1.8569-1.5256 1.7122-7.0503-0.093-3.5493-0.50652-6.4555-0.91902-6.4583-1.2667-0.01-0.82977-3.806 0.5-4.3456 0.98418-0.3993 0.97184-0.7031-0.058-1.4282-0.84039-0.5917-1.0716-1.863-0.64664-3.556 0.56521-2.252 0.94631-2.4825 2.6219-1.5857 1.3961 0.7471 2.3556 0.7213 3.3327-0.09 1.0017-0.8314 1.9231-0.844 3.4132-0.046 1.6492 0.8826 2.4294 0.7039 4.0639-0.9306 1.1126-1.1127 2.9229-2.023 4.0229-2.023 1.1111 0 2-0.6666 2-1.5 0-2.3456 6.2356-1.8891 9.5236 0.6972 1.5363 1.2085 3.6892 2.2633 4.7841 2.3439 1.0949 0.081 2.5987 0.9781 3.3418 1.9942 0.74301 1.0161 2.0746 1.9537 2.959 2.0835 0.88445 0.1298 2.5719 1.1327 3.7498 2.2286 1.178 1.0959 3.4739 2.141 5.1022 2.3226 2.1942 0.2446 3.1173 0.9772 3.5664 2.83 0.34087 1.4063 1.2332 2.3982 2.0396 2.2674 1.6078-0.2609 4.9336 4.9264 4.9336 7.695 0 0.9901 1.5156 2.9563 3.368 4.3692 3.1255 2.3839 3.3718 2.986 3.4201 8.3625 0.0286 3.1865-0.46961 6.4222-1.1072 7.1904-0.63759 0.7683-1.225 2.7035-1.3053 4.3006s-0.87269 3.7067-1.7608 4.6881c-0.88813 0.9814-1.6148 2.3885-1.6148 3.1268 0 0.7384-0.71276 2.1301-1.5839 3.0928-0.87115 0.9626-2.4066 4.373-3.4121 7.5787-1.4928 4.7594-2.1989 5.787-3.8491 5.6022-3.3574-0.376-5.891 5.095-6.7002 14.469-0.49645 5.7504-0.3598 8.6666 0.45197 9.6447 0.63996 0.7711 1.0353 1.8525 0.87849 2.4031-0.75228 2.6416 10.772 9.3339 30.61 17.775 14.321 6.094 20.848 16.992 32.136 53.651 1.4762 4.7942 3.3106 9.2368 4.0765 9.8724 2.5818 2.1428 1.4223 3.8717-6.1075 9.1064l-7.5 5.2141-0.1985 5.5452c-0.40405 11.288 0.003 19.861 1.5231 32.045 2.434 19.516 3.8677 46.505 2.9748 56-0.69905 7.4332-0.57974 8.7196 0.95063 10.25 2.1004 2.1004 2.3616 8.9975 0.40229 10.624-0.74124 0.61517-1.3879 2.5319-1.437 4.2595-0.0491 1.7275-0.51975 3.5714-1.0458 4.0975-1.1448 1.1448 0.0529 5.954 3.3265 13.356 3.1939 7.222 3.8607 12.378 2.4681 19.086-0.96379 4.6426-2.0489 6.628-5.5803 10.21-2.4111 2.4456-4.3867 4.71-4.3901 5.0319-0.0116 1.0743-6.1264 4.0851-8.3247 4.0989-1.1929 0.008-3.1236 0.26987-4.2904 0.58302-2.0696 0.55543-2.1351 1.1729-2.6787 25.236-0.30651 13.567-1.0604 27.912-1.6753 31.879-0.93908 6.0578-0.79574 9.6583 0.89575 22.5 1.1075 8.4085 2.712 23.163 3.5655 32.788 0.85349 9.625 1.9946 22.225 2.5357 28 1.3238 14.128 1.235 20.828-0.34597 26.091-0.8313 2.7674-1.0265 5.5195-0.52418 7.3919 1.2142 4.5261-0.69977 9.7958-5.5112 15.174-6.3947 7.1478-7.0275 8.6935-5.0919 12.437 0.88496 1.7113 2.1997 5.0742 2.9216 7.473 1.8181 6.041-0.20936 9.9599-6.9257 13.387-6.0301 3.0768-17.206 3.9024-22.216 1.6411zm37.357-227.77c1.929-1.8122 2.3144-3.1909 2.3144-8.2775 0-3.9943 0.55684-6.8982 1.6115-8.4039 1.2683-1.8107 1.4806-3.7218 0.99703-8.9725-1.7238-18.716-1.8201-23.344-0.57829-27.78 1.4095-5.0342 0.65404-6.3457-3.6733-6.3766-2.3694-0.0169-3.357 1.7264-3.357 5.926 0 1.5278-1.3546 5.4285-3.0103 8.6682-4.166 8.1519-5.3772 15.571-3.8457 23.557 0.66797 3.4834 1.1525 9.1753 1.0767 12.649-0.11893 5.4489 0.0956 6.2704 1.5634 5.9877 1.9529-0.3761 3.8967-8.6779 2.7045-11.551-0.39987-0.96365-0.84541-4.2271-0.99008-7.2521l-0.26305-5.5 1.2504 3.5203c0.68774 1.9362 1.8163 6.6867 2.5079 10.557 1.107 6.1945 1.0599 7.4185-0.39382 10.23-0.90822 1.7563-2.0897 3.1933-2.6256 3.1933-0.53588 0-0.97432 0.45-0.97432 1 0 1.7546 3.2916 1.0747 5.6856-1.1743zm-2.8787-4.3522c-0.30789-0.30789-0.86705 0.24711-1.2426 1.2333-0.54268 1.4252-0.42782 1.5401 0.5598 0.5598 0.68342-0.67834 0.99067-1.4852 0.68278-1.7931zm-128.8-0.98677c0.87252-1.0513 1.0938-3.7222 0.72495-8.75-0.4168-5.6815-0.0957-8.5034 1.494-13.13 2.3897-6.9551 2.0447-13.105-1.4164-25.248-1.9643-6.8918-2.2301-10.072-2.161-25.858 0.17714-40.49 0.93336-62.986 2.1944-65.278 1.5902-2.89 3.1531-1.9795 3.1531 1.8371 0 2.856 1.2866 3.9042 2.4607 2.0045 0.3183-0.515 0.98418-5.1275 1.4797-10.25 0.84694-8.7549 5.2154-24.916 5.8508-21.646 0.16019 0.8245-0.41917 4.6115-1.2874 8.4156-0.86829 3.8041-2.0818 9.1063-2.6967 11.783-0.89817 3.9093-0.80666 6.269 0.46534 12 2.4864 11.203 2.7844 14.959 1.6664 21.007-1.3279 7.1832 0.10222 10.642 5.0729 12.269 4.2372 1.3867 5.66 0.7582 3.5534-1.5696-2.853-3.1525-1.6203-3.281 1.5039-0.15676 7.9191 7.9191 38.056 10.332 61.931 4.9589 5.225-1.1759 13.176-2.4161 17.669-2.7561 4.4932-0.33993 8.5057-0.95555 8.9167-1.368 0.41098-0.4125 0.17563-0.75-0.52302-0.75-0.69864 0 0.0698-1.5262 1.7076-3.3916 3.4703-3.9524 5.7282-12.04 4.6944-16.814-0.39228-1.8118-1.9426-5.7692-3.4452-8.7942s-3.0344-6.85-3.4041-8.5c-0.62633-2.7955-0.51688-2.7327 1.6061 0.9223 1.253 2.1572 2.7788 4.0866 3.3907 4.2875 2.4154 0.793 3.5192-10.936 2.3383-24.848-0.99735-11.75-0.94645-13.392 0.44661-14.41 0.86473-0.6324 2.2779-2.6801 3.1403-4.5505l1.5681-3.4009-0.68999 3.5c-0.3795 1.925-0.64162 5.75-0.5825 8.5 0.0591 2.75 0.30987 15.575 0.55722 28.5 0.43164 22.554 1.5115 33.699 5.2324 54 0.85684 4.675 1.8547 12.325 2.2175 17l0.65957 8.5h9l0.6942-14c0.38181-7.7 1.1197-16.7 1.6398-20 1.2552-7.9642 0.79245-29.488-0.79548-37-0.83047-3.9287-1.101-10.54-0.78382-19.152 0.26645-7.2336 0.1375-13.713-0.28656-14.4-0.99655-1.6124 8.1397-8.5867 13.275-10.133 2.6657-0.8029 3.4652-1.462 2.7779-2.29-0.53072-0.6395-3.4896-8.7818-6.5754-18.094-11.448-34.547-15.278-39.635-36.734-48.806-7.5595-3.2309-15.65-7.389-17.978-9.2403-2.3285-1.8513-4.8265-3.3703-5.551-3.3757-0.85919-0.01-1.0976-0.7022-0.68545-2.0007 1.2048-3.7959-0.59442-3.9215-5.2517-0.3665-5.4352 4.1488-8.6096 5.5388-10.762 4.7127-1.1769-0.4516-1.2691-0.9081-0.39606-1.9601 0.8653-1.0426 0.81149-1.487-0.22448-1.8536-5.8056-2.0543-6.8626-2.6729-6.8626-4.0167 0-1.0706 1.0238-1.5248 3.437-1.5248 2.6731 0 4.227-0.8334 6.9913-3.75 1.9549-2.0625 3.5582-4.117 3.563-4.5657 0.0218-2.0467-2.2454-4.6843-4.0265-4.6843-1.0806 0-1.9648-0.4981-1.9648-1.107 0-0.6088-0.60571-0.8745-1.346-0.5904-0.74031 0.2841-3.7778 0.1881-6.75-0.2132l-5.404-0.7297 8-0.7388c11.065-1.022 11.429-1.1295 8.25-2.4387-1.5125-0.623-2.75-1.5617-2.75-2.086s-0.75635-1.7097-1.6808-2.6341c-1.5744-1.5743-1.5392-1.7875 0.55467-3.3669l2.2354-1.6862-2.0547-1.8595c-1.1301-1.0227-2.0547-2.6147-2.0547-3.5378 0-3.0825-1.2041-2.9376-4.4835 0.5395-2.6312 2.7899-3.9943 3.446-7.1346 3.4341-4.7678-0.018-8.4792-1.796-9.9633-4.7727-2.2476-4.5082-2.6632-3.5449-2.0657 4.7874 0.47974 6.6903 0.36806 8.021-0.52453 6.25-1.5952-3.165-3.1903-2.8278-2.3555 0.498 0.37933 1.5114 0.76561 2.7489 0.8584 2.75 0.0928 0.001 1.0519 0.4905 2.1314 1.0875 1.4637 0.8095 2.4121 3.352 3.7302 10 1.6323 8.2331 1.6449 9.1752 0.1643 12.325-3.5003 7.446-4.2091 25.09-1.008 25.09 1.8597 0 7.1357-5.9013 9.5004-10.627 2.3068-4.6095 3.6061-5.3734 9.1395-5.3734 3.3433 0 4.4138 0.6543 8.4918 5.19 3.6871 4.1009 4.8574 4.8878 5.5774 3.75 0.50111-0.792 0.91111-0.99 0.91111-0.44s-0.36374 1.5732-0.80831 2.2737c-0.61763 0.9732-1.239 0.7977-2.6341-0.7438-1.8163-2.007-1.8424-1.9982-5.0292 1.6883l-3.2034 3.7058 2.8526 7.8163c5.0514 13.841 5.8543 21.758 6.5436 64.521l0.63285 39.262-5.3986 7.9963c-2.9692 4.398-6.2136 8.255-7.2097 8.5711-2.2679 0.71982-3.3337-0.17301-10.062-8.4285l-5.4291-6.6619 0.83889-36c0.4614-19.8 1.0878-39.353 1.392-43.451 0.67846-9.1401 3.7993-20.603 7.7372-28.419l2.9576-5.8703-2.2374-4.2175-2.2374-4.2174-5.8378 5.8378c-3.2108 3.2107-6.2989 5.8377-6.8625 5.8377-1.8082 0-2.9752-4.9285-2.9752-12.565 0-4.0892-0.25737-7.4349-0.57193-7.4349s-2.4521 1.0912-4.75 2.4248c-2.2979 1.3337-7.1031 3.3992-10.678 4.5902-11.504 3.8321-20.188 8.6911-25.123 14.056-5.7386 6.2391-14.105 22.36-20.423 39.351l-4.8049 12.922 3.4256 2.8723c4.9853 4.1802 14.789 9.4586 21.279 11.457 3.1054 0.9562 5.6462 2.0834 5.6462 2.5047 0 0.4214-3.789-0.5713-8.42-2.2058s-8.6342-2.9719-8.896-2.9719c-0.26185 0-0.76196 6.6375-1.1114 14.75-0.34941 8.1125-1.6206 20.825-2.8248 28.25-2.6208 16.16-2.949 42.513-0.8032 64.5 1.799 18.434 1.7343 21.981-0.52027 28.51-2.7524 7.9709-2.5023 19.094 0.56173 24.99 3.9108 7.5248 7.9185 11.115 8.0928 7.25 0.0796-1.7645 0.20916-1.544 1.4689 2.5 0.52432 1.6831 1.9369 1.5758 3.4631-0.26323zm29.628-115.74c2.3065-2.0212 5.3722-6.6526 8.1086-12.25 4.5646-9.3368 5.1792-7.7369 1.1623 3.0259-2.4708 6.6204-7.56 12.474-10.845 12.474-1.8569 0-1.652-0.4231 1.5739-3.25zm77.017 1.1175c-2.7727-1.6117-4.5741-6.9037-5.1246-15.055l-0.49389-7.3128 1.3629 7.5949c1.3838 7.7116 2.6371 11.008 5.3828 14.155 1.7441 1.9995 1.4899 2.1388-1.1272 0.6175zm-80.108-11c0.3879-1.6759-0.29076-4.9457-1.868-9-3.0964-7.9592-3.5746-10.771-2.6467-15.565 0.70579-3.6459 0.74193-3.5758 0.87494 1.697 0.0827 3.2792 1.1368 7.9228 2.6104 11.5 2.6435 6.4173 3.0653 10.091 1.4352 12.5-0.76138 1.1252-0.8628 0.8422-0.40582-1.1323zm-14.035-48.368c-0.44829-2.2-1.5283-5.0954-2.4-6.4343-1.3075-2.0082-1.5376-5.1592-1.3148-18 0.14858-8.5611 0.62299-17.141 1.0542-19.066 0.43529-1.943 0.58398 3.4704 0.33424 12.169-0.39843 13.878-0.19898 16.599 1.7448 23.802 1.207 4.4734 2.0151 8.8973 1.7956 9.831-0.21947 0.9336-0.76581-0.1025-1.2141-2.3025zm109.49-9.0526c0-0.3039 0.73712-3.7914 1.638-7.75 1.2512-5.4974 1.5111-10.15 1.1004-19.697-0.34002-7.9052-0.22816-11.03 0.30432-8.5 1.4634 6.952 1.133 29.144-0.49173 33.032-1.2771 3.0565-2.551 4.5123-2.551 2.9152zm1.079-41.864c-0.0434-1.0542 0.19293-1.6448 0.52522-1.3125s0.36781 1.1948 0.0789 1.9166c-0.31922 0.7978-0.55618 0.5608-0.60416-0.6041zm-59.579-65.583c0.33992-0.55 1.293-1 2.118-1s1.2219 0.45 0.88197 1c-0.33992 0.55-1.293 1-2.118 1s-1.2219-0.45-0.88197-1zm77.485 286.25c0.008-1.7875-0.43469-3.25-0.98469-3.25s-0.99311 2.1375-0.98469 4.75c0.0111 3.4355 0.28358 4.3349 0.98469 3.25 0.53316-0.825 0.97627-2.9625 0.98469-4.75zm2.0153-9.191c0-0.51754-0.45-1.2191-1-1.559-0.55-0.33992-1 0.0835-1 0.94098 0 0.85746 0.45 1.559 1 1.559s1-0.42344 1-0.94098zm-15.404-45.176c0.28354-8.5343-0.26929-14.595-2.649-29.04-1.654-10.04-3.2855-21.545-3.6255-25.567-0.33999-4.0221-0.76619-7.1648-0.94711-6.9839-0.38961 0.3896-2.4969 13.54-2.5172 15.708-0.008 0.825-0.48466 2.4749-1.0599 3.6664-0.77557 1.6065-0.50465 5.0953 1.0483 13.5 2.1634 11.709 4.4914 27.542 5.7016 38.777l0.69401 6.4435 1.4983-2.8595c0.97463-1.8601 1.6235-6.6289 1.8566-13.645zm-117.16-31.24c1.32-7.3433 1.497-10.398 0.69555-12-1.5289-3.0561-1.6237-4.345-0.85734-11.649 0.37511-3.575 0.31683-8.075-0.12951-10-0.68642-2.9604-0.9276-2.0355-1.5644 6-0.4141 5.225-1.614 16.475-2.6665 25-2.4181 19.587-2.4812 28.879-0.2296 33.782l1.7075 3.7179 0.63679-12.5c0.35023-6.875 1.4336-16.933 2.4075-22.351zm108.72-39.219c-0.74697-5.5678-0.84274-5.7312-1.5674-2.6736-0.49725 2.098-0.3089 4.3025 0.5294 6.1963 0.71569 1.6169 1.421 2.82 1.5674 2.6736s-0.0918-2.9348-0.5294-6.1963zm-34.834-157.18c0.25391-0.4125 0.77047-2.8136 1.1479-5.3357l0.68629-4.5858-4.8389 0.086c-3.7868 0.067-4.752 0.4119-4.4391 1.5858 0.21991 0.825 0.51028 2.7042 0.64526 4.176s0.54411 3.1593 0.90917 3.75c0.75372 1.2196 5.1879 1.4635 5.8893 0.324zm-9.3436-5.309c0-1.1324-0.45-1.7809-1-1.441-0.55 0.34-1 1.2665-1 2.0591 0 0.7925 0.45 1.4409 1 1.4409s1-0.9265 1-2.059zm-12-6.941c1.9551-1.9551 2.6778-5.9889 1.3167-7.35-0.37582-0.3758-1.2541 0.6742-1.9517 2.3334-0.72384 1.7215-2.019 3.0166-3.0167 3.0166-1.3598 0-1.4816-0.2666-0.54827-1.2 1.7586-1.7585 1.4662-3.2657-0.34238-1.7648-1.1496 0.9541-1.8311 0.9913-2.6762 0.1462-0.83693-0.8369-1.4868-0.8408-2.4818-0.015-0.74138 0.6153-1.6312 0.8355-1.9773 0.4894-0.34615-0.3462 1.1272-1.4012 3.2742-2.3444 3.4637-1.5218 3.6407-1.7577 1.5711-2.0935-1.2828-0.2082-3.1183 0.3327-4.0787 1.2019-0.96045 0.8692-2.3032 1.5804-2.984 1.5804-2.2904 0-0.77472 5.3681 1.8952 6.712 3.8675 1.9468 9.6864 1.6015 12-0.712zm21 0.107c0-1.0998-2.4804-2.107-5.1888-2.107-1.3432 0-1.8408-0.4805-1.4776-1.4269 0.30115-0.7847-0.1007-1.9648-0.89301-2.6224-1.2145-1.0079-1.4406-0.5485-1.4406 2.9269v4.1224h4.5c2.475 0 4.5-0.4018 4.5-0.893zm-12.647-10.603c0.82287-0.8228 2.7675-1.9858 4.3214-2.5844l2.8253-1.0883-4-2.0507c-2.2-1.1278-4.148-2.4338-4.3289-2.9022-0.18088-0.4683-1.144-1.8581-2.1403-3.0885-1.6261-2.0082-2.5631-2.2063-9.1608-1.9369-8.28 0.338-9.8701 1.1765-9.8701 5.2045 0 1.5468-0.44497 3.9828-0.98881 5.4132-0.7832 2.06-0.66525 2.725 0.56721 3.1979 0.85582 0.3284 2.0658 0.087 2.6888-0.5357 1.6141-1.614 9.8702-1.3434 12.174 0.399 2.4967 1.8885 6.0082 1.8761 7.9121-0.028zm-24.353-44.063c0-0.8574-0.45734-1.2763-1.0163-0.9309-0.55897 0.3455-0.75742 1.047-0.44098 1.559 0.85723 1.3871 1.4573 1.1284 1.4573-0.6281z"/>
  </g>
  <metadata>
    <rdf:RDF>
      <cc:Work>
        <dc:format>image/svg+xml</dc:format>
        <dc:type rdf:resource="http://purl.org/dc/dcmitype/StillImage"/>
        <cc:license rdf:resource="http://creativecommons.org/licenses/publicdomain/"/>
        <dc:publisher>
          <cc:Agent rdf:about="http://openclipart.org/">
            <dc:title>Openclipart</dc:title>
          </cc:Agent>
        </dc:publisher>
        <dc:title>moss</dc:title>
        <dc:date>2013-01-21T13:37:32</dc:date>
        <dc:description>Moss from the television show IT Crowd</dc:description>
        <dc:source>http://openclipart.org/detail/174370/it-crowd-by-caw-174370</dc:source>
        <dc:creator>
          <cc:Agent>
            <dc:title>caw</dc:title>
          </cc:Agent>
        </dc:creator>
        <dc:subject>
          <rdf:Bag>
            <rdf:li>clip art</rdf:li>
            <rdf:li>clipart</rdf:li>
            <rdf:li>tv television blackandwhite</rdf:li>
          </rdf:Bag>
        </dc:subject>
      </cc:Work>
      <cc:License rdf:about="http://creativecommons.org/licenses/publicdomain/">
        <cc:permits rdf:resource="http://creativecommons.org/ns#Reproduction"/>
        <cc:permits rdf:resource="http://creativecommons.org/ns#Distribution"/>
        <cc:permits rdf:resource="http://creativecommons.org/ns#DerivativeWorks"/>
      </cc:License>
    </rdf:RDF>
  </metadata>
</svg>
